PathFileType	4	(X/Y/Z)	C:\Users\dbl\Desktop\20210112(1)\20210112\bx_y_5_901.trc
DataRate	CameraRate	NumFrames	NumMarkers	Units	OrigDataRate	OrigDataStartFrame	OrigNumFrames
50.00	50.00	       4	43	mm	50.00	462	       527
Frame#	Time	Top.Head			R.Acromium			L.Acromium			Sternum			R.ASIS			L.ASIS			V.Sacral			R.Thigh.Upper			R.Thigh.Front			R.Thigh.Rear			R.Knee.Lat			R.Knee.Med			R.Shank.Upper			R.Shank.Front			R.Shank.Rear			R.Ankle.Lat			R.Midfoot.Lat			R.Toe.Lat			R.Toe.Tip			R.Toe.Med			R.Ankle.Med			R.Midfoot.Sup			R.Heel			L.Thigh.Upper			L.Thigh.Front			L.Thigh.Rear			L.Knee.Lat			L.Knee.Med			L.Shank.Upper			L.Shank.Front			L.Shank.Rear			L.Ankle.Lat			L.Midfoot.Lat			L.Toe.Lat			L.Toe.Tip			L.Toe.Med			L.Ankle.Med			L.Midfoot.Sup			L.Heel			origin1 front left			origin2 front right			origin 3 back right			origin 4 back leftt			
		X1	Y1	Z1	X2	Y2	Z2	X3	Y3	Z3	X4	Y4	Z4	X5	Y5	Z5	X6	Y6	Z6	X7	Y7	Z7	X8	Y8	Z8	X9	Y9	Z9	X10	Y10	Z10	X11	Y11	Z11	X12	Y12	Z12	X13	Y13	Z13	X14	Y14	Z14	X15	Y15	Z15	X16	Y16	Z16	X17	Y17	Z17	X18	Y18	Z18	X19	Y19	Z19	X20	Y20	Z20	X21	Y21	Z21	X22	Y22	Z22	X23	Y23	Z23	X24	Y24	Z24	X25	Y25	Z25	X26	Y26	Z26	X27	Y27	Z27	X28	Y28	Z28	X29	Y29	Z29	X30	Y30	Z30	X31	Y31	Z31	X32	Y32	Z32	X33	Y33	Z33	X34	Y34	Z34	X35	Y35	Z35	X36	Y36	Z36	X37	Y37	Z37	X38	Y38	Z38	X39	Y39	Z39	X40	Y40	Z40	X41	Y41	Z41	X42	Y42	Z42	X43	Y43	Z43	

462	9.220	-702.05048	120.12497	1849.73022	-675.89990	-59.14009	1550.64673	-681.91205	297.66833	1536.75830	-589.06134	111.54176	1434.41406	-583.56250	-8.63690	1047.37134	-565.13556	220.53915	1063.61194	-778.42487	104.47327	1041.33655	-630.15045	-76.88121	866.20520	-583.21881	-2.94690	800.51068	-679.30591	-48.89824	706.24731	-702.59235	-26.46301	615.43213	-695.06134	81.17090	574.73370	-720.19739	-23.71631	568.66339	-671.73248	18.86115	520.78485	-769.49811	-32.86961	490.21182	-767.92664	-4.54154	207.42923	-665.39557	-68.33402	161.76990	-624.38379	-79.06171	159.28371	-559.62781	-41.53019	162.66698	-602.61292	18.70168	166.76717	-715.83356	77.72186	216.71208	-674.57721	54.50417	158.77878	-793.91864	56.70499	174.63585	-624.12921	278.89572	871.00409	-574.72528	211.29297	816.83112	-680.06183	274.01596	745.32751	-715.33734	252.18988	638.16992	-684.34662	134.79236	575.01801	-723.92712	246.82654	575.57324	-673.72156	203.54791	532.11511	-767.84369	256.70767	504.09070	-770.40527	223.99600	205.11685	-665.82281	299.13934	160.20168	-628.34442	306.96942	161.62489	-560.93848	261.92184	165.43437	-594.16663	222.66949	172.97969	-711.35461	152.27780	216.58885	-675.26569	172.66263	157.29504	-796.53461	173.71933	183.26277	-527.95728	304.13107	146.46533	-517.50909	-72.47849	142.87675	-876.09021	-78.97669	141.31879	-882.54889	296.08881	144.62773	
463	9.240	-702.61865	120.06995	1849.77075	-676.25226	-59.18304	1550.67749	-682.56122	297.75562	1536.79443	-589.56403	111.63869	1434.46680	-583.97931	-8.42027	1047.47144	-565.59943	220.72862	1063.75232	-778.73340	104.60870	1041.21838	-630.27722	-77.01905	866.17438	-583.51660	-2.99218	800.53369	-679.62341	-48.82609	706.27429	-702.97137	-26.41554	615.42084	-695.42499	81.25284	574.70752	-720.36066	-23.69365	568.57080	-671.84058	18.91240	520.83838	-769.68048	-32.85510	490.15472	-767.92584	-4.55618	207.41170	-665.37762	-68.33840	161.78831	-624.37909	-79.03813	159.28708	-559.61896	-41.59459	162.63107	-602.62006	18.70431	166.74219	-715.94116	77.78089	216.71260	-674.50549	54.49480	158.73499	-793.91290	56.69901	174.63744	-624.65015	278.79102	870.91406	-575.00305	211.32228	816.83673	-680.38611	274.22021	745.50568	-715.52734	252.42119	638.27814	-684.85901	135.23880	575.09265	-724.18420	246.91351	575.61560	-674.08008	203.56831	532.13361	-767.98804	256.77206	504.10272	-770.43054	224.01088	205.09106	-665.79755	299.17145	160.18095	-628.30988	306.97238	161.62343	-560.94421	261.89951	165.45348	-594.15387	222.67726	173.04195	-711.35767	152.28375	216.57675	-675.27722	172.65565	157.29463	-796.55310	173.73932	183.26047	-527.95953	304.13934	146.50311	-517.48792	-72.45346	142.87340	-876.09021	-78.99509	141.35706	-882.55640	296.09183	144.61917	
464	9.260	-703.13898	119.99467	1849.79138	-676.65283	-59.25574	1550.73364	-683.16602	297.84500	1536.82324	-590.06427	111.68679	1434.51172	-584.41187	-8.21182	1047.54382	-566.05872	220.90520	1063.86743	-779.08673	104.76809	1041.07031	-630.44092	-77.11148	866.03265	-583.78674	-3.05585	800.55804	-679.99719	-48.76432	706.32904	-703.32288	-26.29186	615.39642	-695.74744	81.34343	574.70581	-720.47351	-23.60448	568.43573	-671.95520	18.95058	520.89105	-769.81158	-32.82331	490.11728	-767.91113	-4.56430	207.36324	-665.35498	-68.33322	161.81335	-624.37006	-79.00626	159.32103	-559.60986	-41.65257	162.62852	-602.62305	18.70563	166.71725	-716.06750	77.86150	216.73155	-674.43414	54.51276	158.68518	-793.91553	56.70444	174.63699	-625.04181	279.03476	870.98956	-575.26880	211.41692	816.87073	-680.61676	274.51077	745.73657	-715.77356	252.66740	638.39923	-685.37506	135.68657	575.16315	-724.42694	246.97543	575.62567	-674.34869	203.67383	532.17493	-768.10730	256.84985	504.15341	-770.47253	224.02556	205.08578	-665.79248	299.18021	160.19942	-628.29694	306.98157	161.63437	-560.95880	261.89355	165.44473	-594.19427	222.63799	173.06413	-711.35352	152.30627	216.56161	-675.31750	172.65936	157.27534	-796.55688	173.72398	183.24446	-527.98767	304.13602	146.53595	-517.46375	-72.45663	142.88553	-876.04865	-79.02723	141.34633	-882.54718	296.07782	144.59189	
465	9.280	-703.58136	119.91179	1849.79907	-677.14032	-59.30696	1550.78918	-683.71057	297.91577	1536.83398	-590.61603	111.71313	1434.54993	-584.87610	-7.99400	1047.56238	-566.53607	221.04688	1063.94800	-779.52808	104.95595	1040.92371	-630.68347	-77.12317	865.77155	-584.01733	-3.06137	800.60687	-680.35510	-48.70944	706.40027	-703.62256	-26.13851	615.38983	-695.95850	81.41635	574.72675	-720.57880	-23.46619	568.28564	-672.12036	18.98792	520.94080	-769.90289	-32.75759	490.09872	-767.88470	-4.55643	207.29944	-665.34674	-68.31875	161.85033	-624.37970	-78.98581	159.35562	-559.62018	-41.67226	162.63570	-602.61584	18.70504	166.70073	-716.17664	77.95382	216.75980	-674.39880	54.55827	158.63998	-793.93103	56.71667	174.62827	-625.25562	279.64728	871.27197	-575.54755	211.56470	816.97321	-680.82025	274.78958	745.88757	-716.07306	252.85747	638.46649	-685.89374	136.13503	575.22931	-724.64246	247.03242	575.59265	-674.48401	203.85632	532.23816	-768.23578	256.94962	504.20370	-770.52698	224.06000	205.08374	-665.80127	299.17285	160.22554	-628.31592	306.99063	161.64420	-560.96869	261.91171	165.41882	-594.25446	222.57249	173.04129	-711.35840	152.32730	216.55251	-675.35986	172.68436	157.25339	-796.55444	173.68695	183.21805	-528.02252	304.13065	146.55362	-517.45441	-72.48739	142.90659	-875.98157	-79.05978	141.29410	-882.53064	296.05667	144.56660	
